<?xml version="1.0" standalone="no"?><!DOCTYPE svg PUBLIC "-//W3C//DTD SVG 1.1//EN" "http://www.w3.org/Graphics/SVG/1.1/DTD/svg11.dtd"><svg t="1552644475089" class="icon" style="" viewBox="0 0 1024 1024" version="1.1" xmlns="http://www.w3.org/2000/svg" p-id="3899" xmlns:xlink="http://www.w3.org/1999/xlink" width="200" height="200"><path d="M949.313536 128.009216 74.68544 128.009216c-41.248768 0-74.673152 33.44896-74.673152 74.673152l0 618.635264c0 41.247744 33.424384 74.647552 74.673152 74.647552l874.628096 0c41.249792 0 74.674176-33.399808 74.674176-74.647552L1023.987712 202.682368C1023.987712 161.458176 990.564352 128.009216 949.313536 128.009216zM962.113536 179.208192c5.900288 0 10.674176 4.800512 10.674176 10.674176l0 265.315328-71.360512-60.53376 60.485632-42.210304-61.448192-54.597632-7.000064-81.84832-77.973504 25.899008-74.422272-34.798592-7.156736 34.788352-81.298432-62.687232L962.113536 179.209216zM754.820096 307.504128l10.647552-51.735552 47.924224 22.386688 50.173952-16.699392 4.50048 52.647936 39.549952 35.1488-43.350016 30.27456-10.6496 51.77344-47.947776-22.385664-50.148352 16.623616-4.52608-52.635648L711.49568 337.7664 754.820096 307.504128zM962.113536 844.766208 61.88544 844.766208c-5.899264 0-10.674176-4.750336-10.674176-10.647552L51.211264 189.882368c0-5.873664 4.774912-10.674176 10.674176-10.674176l507.941888 0 147.24608 113.55136-59.877376 41.844736 61.374464 54.549504 7.05024 81.898496 77.947904-25.950208 74.42432 34.837504 6.812672-33.08544 87.983104 74.591232 0 312.67328C972.787712 840.015872 968.013824 844.766208 962.113536 844.766208z" p-id="3900"></path><path d="M153.608192 486.4l435.18976 0 0 25.6-435.18976 0 0-25.6Z" p-id="3901"></path><path d="M153.608192 588.7744l511.987712 0 0 51.197952-511.987712 0 0-51.197952Z" p-id="3902"></path><path d="M153.608192 691.170304l511.987712 0 0 51.2-511.987712 0 0-51.2Z" p-id="3903"></path></svg>