<?xml version="1.0" standalone="no"?><!DOCTYPE svg PUBLIC "-//W3C//DTD SVG 1.1//EN" "http://www.w3.org/Graphics/SVG/1.1/DTD/svg11.dtd"><svg t="1552644396682" class="icon" style="" viewBox="0 0 1024 1024" version="1.1" xmlns="http://www.w3.org/2000/svg" p-id="1163" xmlns:xlink="http://www.w3.org/1999/xlink" width="200" height="200"><path d="M0 950.857143h1024v73.142857H0v-73.142857z m585.142857-292.571429h438.857143v73.142857H585.142857V658.285714z m219.428572-292.571428h219.428571v73.142857h-219.428571V365.714286z m0-292.571429h219.428571v73.142857h-219.428571V73.142857z"  p-id="1164"></path><path d="M636.342857 119.076571a146.285714 146.285714 0 0 0-206.921143 0L119.076571 429.421714A146.285714 146.285714 0 1 0 325.997714 636.342857l310.272-310.272a146.285714 146.285714 0 0 0 0-206.921143z m51.712-51.712a219.428571 219.428571 0 0 1 0 310.345143L377.709714 688.054857A219.428571 219.428571 0 0 1 67.364571 377.709714L377.709714 67.364571a219.428571 219.428571 0 0 1 310.345143 0z m-439.588571 232.740572l51.638857-51.712 206.921143 206.921143-51.712 51.712-206.921143-206.921143z" p-id="1165"></path></svg>